<svg xmlns="http://www.w3.org/2000/svg" viewBox="0 0 218 218"><defs><style>.cls-1,.cls-2{fill:none;stroke:#000;stroke-miterlimit:10;}.cls-1{stroke-width:1.05px;}.cls-2{stroke-linecap:round;stroke-width:5.52px;}</style></defs><title>logo</title><g id="Layer_2" data-name="Layer 2"><g id="Layer_1-2" data-name="Layer 1"><path d="M214,4V214H4V4H214m4-4H0V218H218V0Z"/><path d="M208.75,9.25v199.5H9.25V9.25h199.5m1-1.05H8.2V209.8H209.8V8.2Z"/><line class="cls-1" x1="109.5" y1="21.5" x2="109.5" y2="192.5"/><line class="cls-1" x1="24" y1="107" x2="195" y2="107"/><path d="M81,43V81H43V43H81m6-6H37V87H87V37Z"/><path d="M152.5,133.5a19,19,0,1,1-19,19,19,19,0,0,1,19-19m0-6a25,25,0,1,0,25,25,25,25,0,0,0-25-25Z"/><path d="M151.9,47.6l19.74,34.19H132.16L151.9,47.6m0-12L121.77,87.79H182L151.9,35.6Z"/><line class="cls-2" x1="40" y1="129" x2="86" y2="175"/><line class="cls-2" x1="86" y1="129" x2="40" y2="175"/></g></g></svg>