<svg xmlns="http://www.w3.org/2000/svg" viewBox="0 0 320 320"><defs><style>.cls-1{fill:#e6e6e6;}.cls-2{fill:#fefefe;}.cls-3{fill:#fff;}</style></defs><title>thumb</title><g id="Layer_2" data-name="Layer 2"><g id="Layer_1-2" data-name="Layer 1"><rect class="cls-1" width="320" height="320"/><path class="cls-2" d="M106.81,228l-1.53-2.42-3.22-8.71-4-10.31c-.6-1.88-1.1-3.79-1.8-5.62q-7.06-18.38-14.21-36.72c-1.43-3.65-3.05-7.23-4.59-10.84l-4-10.31-3.19-8.69q0-.37,0-.74l7.15-3.15,4.73-1.65,6.35-2.39L94.92,124l6.34-2.39,7.93-3.15,9.53-3.91,10.3-4c4.21-1.46,8.46-2.81,12.62-4.41,7.72-3,15.38-6.07,23.07-9.12l10.31-4,10.31-4,5.59-2.36c2.53-.28,5.43-2.21,7,1.58l1.64,4.74,2.33,5.56,1.67,5.54,2.35,5.55,3.19,8.72c.39,1.11.75,2.24,1.18,3.34,2.1,5.35,2.1,5.35,7.66,5.37l23.64,0,0,.8v55.47q0,3.57,0,7.14,0,4,0,7.92,0,3.57,0,7.14v5.56q0,3.16,0,6.33v4.78l-.05,5.54Zm24.57-11.14h98.34a44.09,44.09,0,0,0,.76-5.79q.08-33.17,0-66.34a12.64,12.64,0,0,0-.19-3.91,4.4,4.4,0,0,0-2.22-2.27c-.89-.4-2.07-.14-3.12-.17H124.25c-6.32,0-6.33,0-6.33,6.39q0,23,0,45.95V197c0,5.08-.08,10.17,0,15.25a30.14,30.14,0,0,0,.76,4.55ZM90.17,153.38,96.52,170l8.72,23,1.2,2.19v-63l-3.62,1.34-6.34,2.38-4,1.58c-1.37.42-2.77.77-4.11,1.29-2.84,1.1-3.21,1.81-2.13,4.77C87.47,146.87,88.86,150.11,90.17,153.38ZM175,105.79l-13.44,4.8c-1.46.57-2.92,1.16-4.39,1.72l-35.26,13.34-.2,1.26c1.17.1,2.35.28,3.52.28q34.67,0,69.33,0a33.89,33.89,0,0,0,5-.75l-2.36-6.36-2.39-6.34-2.39-6.34c-.5-1.49-1-3-1.5-4.46-.78-2.11-2.23-2.77-4.35-1.89Q180.81,103.42,175,105.79Z"/><path class="cls-2" d="M132.2,206.51l1.57-1.6L137,201l3.15-3.2,4-4,3.18-3.92L152,185.1a41.14,41.14,0,0,1,4.57,2c2.35,1.39,4.61,2.95,6.85,4.52,1.74,1.22,3.22,1,4.35-.69,1.44-2.16,2.72-4.42,4.07-6.64l5.54-7.94q4.39-6,8.78-12c1.53-2.1,3-4.2,4.94-6.84l3.71,5.37c1.22,2.39,2.37,4.81,3.7,7.13.27.47,1.22.54,1.86.8l7.9-2.34,3.18,9.49,1.59,5.54,1.56,4.75,1.6,5.56,1.58,4.78,1.6,5.53.78,3.16h0q-41.7,0-83.4,0A27.7,27.7,0,0,1,132.2,206.51Z"/><circle class="cls-3" cx="142.5" cy="161.5" r="11"/></g></g></svg>